<svg width="40" height="35" viewBox="0 0 40 35" fill="none" xmlns="http://www.w3.org/2000/svg">
<path d="M37.7428 23H2.25722C0.997375 23 0 24.048 0 25.2533V27.0873C0 28.2926 0.997375 29.2882 2.25722 29.2882H2.78215V29.8122C2.78215 32.6943 5.14436 35 7.979 35H32.021C34.9081 35 37.2179 32.6419 37.2179 29.8122V29.2882H37.7428C38.9501 29.2882 40 28.2926 40 27.0349V25.2009C40 24.048 39.0026 23 37.7428 23ZM35.6955 29.8122C35.6955 31.8035 34.0682 33.4279 32.0735 33.4279H7.92651C5.93176 33.4279 4.30446 31.8035 4.30446 29.8122V29.2882H35.6955V29.8122ZM38.4252 27.0349C38.4252 27.4017 38.1102 27.7162 37.7428 27.7162H2.25722C1.88976 27.7162 1.5748 27.4017 1.5748 27.0349V25.2009C1.5748 24.8865 1.88976 24.5721 2.25722 24.5721H37.7953C38.1627 24.5721 38.4777 24.8865 38.4777 25.2533V27.0349H38.4252Z" fill="#81B3D2"/>
<path d="M8.17037 18.9487L10.9704 21L13.8222 18.9487L16.6741 21L19.5259 18.9487L22.3259 21L25.1778 18.9487L28.0296 21L30.8815 18.9487L33.7333 21L37 18.5897L36.1185 17.359L33.7333 19.0513L30.8815 17L28.0296 19.0513L25.1778 17L22.3259 19.0513L19.5259 17L16.6741 19.0513L13.8222 17L10.9704 19.0513L8.17037 17L5.31852 19.0513L2.93333 17.359L2 18.5897L5.31852 21L8.17037 18.9487Z" fill="#81B3D2"/>
<path d="M37.9763 16C37.9763 15.6913 38.0296 14.6624 37.9763 14.4566C37.6037 6.43087 29.9376 0 20.5148 0C11.0919 0 3.37266 6.43087 3 14.4566C3 14.6624 3 15.6913 3 16H37.9763ZM20.5148 1.54341C29.0326 1.54341 36.0598 7.30547 36.3792 14.4566H4.59709C4.96975 7.30547 11.997 1.54341 20.5148 1.54341Z" fill="#81B3D2"/>
<path d="M20 9C20.5523 9 21 8.55228 21 8C21 7.44772 20.5523 7 20 7C19.4477 7 19 7.44772 19 8C19 8.55228 19.4477 9 20 9Z" fill="#81B3D2"/>
<path d="M16 6C16.5523 6 17 5.55228 17 5C17 4.44772 16.5523 4 16 4C15.4477 4 15 4.44772 15 5C15 5.55228 15.4477 6 16 6Z" fill="#81B3D2"/>
<path d="M24 6C24.5523 6 25 5.55228 25 5C25 4.44772 24.5523 4 24 4C23.4477 4 23 4.44772 23 5C23 5.55228 23.4477 6 24 6Z" fill="#81B3D2"/>
</svg>
