<svg width="39" height="37" viewBox="0 0 39 37" fill="none" xmlns="http://www.w3.org/2000/svg">
<path d="M15 33H23V21H15V33ZM21.55 31.5439H16.45V22.4561H21.5V31.5439H21.55Z" fill="#81B3D2"/>
<path d="M37.9036 20.1354L39 19.0622L33.8313 14.0028V0.20442H26.6265V6.95028L19.4739 0L0 19.1133L1.09639 20.1865L5.16867 16.2003V35.518H3.13253V37H36.494V35.518H33.8313V16.1492L37.9036 20.1354ZM28.1406 1.73757H32.2651V12.5207L28.1406 8.48343V1.73757ZM32.3173 35.4668H6.73494V14.6671L19.4739 2.14641L32.2651 14.6671V35.4668H32.3173Z" fill="#81B3D2"/>
<path d="M16 13.9742C16 16.1935 17.8065 18 19.9742 18C22.1935 18 24 16.1935 24 13.9742C24 11.7548 22.1935 10 19.9742 10C17.7548 10 16 11.7548 16 13.9742ZM19.9742 11.3935C21.3677 11.3935 22.5548 12.529 22.5548 13.9742C22.5548 15.3677 21.4194 16.5548 19.9742 16.5548C18.5806 16.5548 17.3935 15.4194 17.3935 13.9742C17.3935 12.5806 18.5806 11.3935 19.9742 11.3935Z" fill="#81B3D2"/>
<path d="M11 21H9V23H11V21Z" fill="#81B3D2"/>
<path d="M14 21H12V23H14V21Z" fill="#81B3D2"/>
<path d="M11 24H9V26H11V24Z" fill="#81B3D2"/>
<path d="M14 24H12V26H14V24Z" fill="#81B3D2"/>
<path d="M27 21H25V23H27V21Z" fill="#81B3D2"/>
<path d="M31 21H29V23H31V21Z" fill="#81B3D2"/>
<path d="M27 24H25V26H27V24Z" fill="#81B3D2"/>
<path d="M31 24H29V26H31V24Z" fill="#81B3D2"/>
</svg>
