<svg xmlns="http://www.w3.org/2000/svg">
  <symbol viewBox="0 0 18 15" id="icon-tweeter">
    <path
      d="M11.6229 0.17161C13.3714 -0.343031 14.8114 0.377466 15.4286 1.30382C16.1486 1.09796 16.8686 0.789178 17.5886 0.583322C17.5886 1.40675 17.0743 2.12724 16.6629 2.3331C17.3829 2.53896 18 1.81846 18 1.81846C17.7943 2.84774 16.9714 3.56824 16.3543 3.87702C16.1486 10.6703 12.96 15.1991 5.65714 14.9933C5.14286 14.9933 5.76 14.9933 5.14286 14.9933C4.73143 14.9933 0.72 14.5815 0 13.1406C2.36571 13.3464 4.11429 12.7288 4.93714 12.0083C3.90857 11.6996 2.05714 11.4937 1.74857 9.02343C2.16 9.12636 2.36571 9.22928 3.08571 9.12636C1.85143 8.30293 0.411429 7.58244 0.514286 5.31802C0.822857 5.6268 1.64571 5.83266 1.95429 5.83266C1.23429 5.6268 -0.102857 2.43603 1.02857 0.892107C2.98286 2.74481 4.93714 4.49459 8.64 4.70045C8.74286 2.3331 9.77143 0.789178 11.6229 0.17161Z"
    />
  </symbol>
  <symbol viewBox="0 0 9 19" id="icon-facebook">
    <path
      d="M6.51724 3.41799C7.34483 3.41799 8.17241 3.41799 9 3.41799C9 2.31217 9 1.20635 9 0C7.96552 0 7.03448 0 6 0C2.7931 0.201058 1.55172 2.4127 1.96552 6.13227H0V9.65079H2.06897C2.06897 12.7672 2.06897 15.8836 2.06897 19C3.41379 19 4.75862 19 6 19C6 15.8836 6 12.7672 6 9.65079H9V6.13227H6C6 5.12698 6 3.71958 6.51724 3.41799Z"
    />
  </symbol>
  <symbol viewBox="0 0 20 14" id="icon-youtube">
    <path
      d="M17.1813 0H2.81331C1.30618 0 0 1.3 0 2.8V11.1C0 12.7 1.30618 14 2.81331 14H17.1813C18.7889 14 19.9946 12.7 19.9946 11.2V2.8C20.095 1.3 18.7889 0 17.1813 0ZM7.03326 10.4V3.6L13.8656 7L7.03326 10.4Z"
    />
  </symbol>
</svg>
